<svg id="Layer_1" data-name="Layer 1" xmlns="http://www.w3.org/2000/svg" viewBox="0 0 1038.12 127.86"><defs><style>.cls-1{fill:#42c1c7;}</style></defs><title>logo</title><path class="cls-1" d="M456.2,639c-2-6.37-4-10.28-6-11.72a8.55,8.55,0,0,0-3.45-1.13,17.13,17.13,0,0,0-3.13-.32c-1.77,0-2.65-.5-2.65-1.52s1.2-1.45,3.61-1.45q5.15,0,12.21.16a16.57,16.57,0,0,0,2.41.17l6.58.15a.49.49,0,0,1,.33-.15h1.52a12.37,12.37,0,0,0,2.09-.17q6.42-.15,12.2-.16c2.31,0,3.46.48,3.46,1.45s-1,1.52-3,1.52a9,9,0,0,0-4.1.65c-1.23.53-1.85,1.74-1.85,3.61a28.68,28.68,0,0,0,1.21,5.62l2.41,9.48q1,3.76,4.17,14.21l6.35,21.36q7.64,25.14,10.6,34.37h.48l31.88-85.68c1.44-4,2.81-5.94,4.1-5.94q1.68,0,4.81,7.71l34.21,82.71h.48q1-3.78,3.78-13.42L599,640.29a33.16,33.16,0,0,0,1.68-9.56q0-4.89-7.95-4.9c-1.87,0-2.81-.5-2.81-1.52s1.28-1.45,3.86-1.45c3.48,0,7.25.06,11.32.16a9.67,9.67,0,0,0,1.93.17l5.62.15a1.87,1.87,0,0,1,.8-.15l11.08-.33c1.93,0,2.89.43,2.89,1.29q0,1.68-2.25,1.68a17.81,17.81,0,0,0-5.78.81q-2.64,1-4.74,5.78c-.58,1.18-1.31,2.92-2.16,5.22l-2.33,6.42q-2.58,7.23-7.23,20.56-3.93,11.32-9,26.82L577.3,741.79q-2.49,7.71-4.82,7.71-1.77,0-5.06-8.11L533.21,659h-.33l-14.45,38.38-10,25.46q-5.13,12.69-7.62,17.91-4.11,8.75-5.87,8.75t-3.77-6.1Z" transform="translate(-440.94 -622.86)"/><path class="cls-1" d="M628.24,688.13l-.2-6c-.18-3.2-1.6-5.08-4.25-5.67a18.67,18.67,0,0,0-3.87-.28c-1.12,0-1.69-.31-1.69-.92s.73-.87,2.18-.87l14.26.28h20.51l4.25-.09a27.19,27.19,0,0,0,4.26-.58.81.81,0,0,0,.39-.1l1.21-.34c.39,0,.58.31.58.92l-.49,3.58c-.12.84-.22,1.79-.29,2.86l-.38,5.17a4.12,4.12,0,0,1-.15,1.35,1.61,1.61,0,0,1-.29.73.68.68,0,0,1-.68.39c-.58,0-.87-.47-.87-1.4a14.71,14.71,0,0,0-.09-1.6,15.3,15.3,0,0,0-.53-2,5.17,5.17,0,0,0-1.7-2.28,13.08,13.08,0,0,0-4.93-1.26,23.33,23.33,0,0,0-2.66-.09l-4.25-.24-7.16-.1c-.45,0-.68.34-.68,1v25.06c0,.74.23,1.11.68,1.11h7.93c1.9,0,3.48,0,4.74-.1a23,23,0,0,0,3.19-.14c2.45-.2,4-.68,4.74-1.46s1.27-1.3,1.59-1.3.68.26.68.77l-.48,4.07c-.13,1-.23,2.06-.29,3.19l-.39,6.62c0,1.26-.31,1.89-.92,1.89a.77.77,0,0,1-.87-.87l-.1-1.69a13.21,13.21,0,0,0-.28-1.89c-.55-2.26-2.41-3.54-5.57-3.87a23.77,23.77,0,0,0-2.65-.1c-1.13-.06-2.52-.09-4.16-.09l-7.26-.1c-.39,0-.58.32-.58,1v23.21c.13,3.48.89,5.73,2.27,6.72s4.66,1.6,9.63,1.6h2.18l2.46-.19a12.68,12.68,0,0,0,4.64-1c2.33-1.06,3.81-3.5,4.45-7.3.2-1,.56-1.5,1.12-1.5s.77.6.77,1.79a45.92,45.92,0,0,1-1.26,11c-.49,1.71-2.27,2.56-5.37,2.56s-6.33,0-9.72-.1l-7.4-.19c-4.22-.19-7.66-.29-10.3-.29h-2.37c-1.13,0-2.22,0-3.29.1l-6.82.19c-1.32,0-2-.32-2-1s.52-.82,1.54-.82a16.8,16.8,0,0,0,3.59-.39q2.17-.39,2.9-5.46.29-2.76.38-8.71c.07-1.58.1-3.53.1-5.85Z" transform="translate(-440.94 -622.86)"/><path class="cls-1" d="M691.42,687.4l-.2-6q-.29-4.79-4.26-5.66a18.46,18.46,0,0,0-3.86-.29c-1.13,0-1.7-.3-1.7-.92s.73-.87,2.18-.87l17.12.29a13.22,13.22,0,0,1,1.79-.1l6.14-.19H718l5,.19a77,77,0,0,1,10.6,1.21,44.4,44.4,0,0,1,10.2,3.34,32.9,32.9,0,0,1,9,6.53A31.34,31.34,0,0,1,759.46,695a37.74,37.74,0,0,1,2.95,15.08,41.07,41.07,0,0,1-3.24,16.3,37.57,37.57,0,0,1-7.55,11.32,33.91,33.91,0,0,1-4.54,3.77,49.29,49.29,0,0,1-6.82,3.87,47.63,47.63,0,0,1-9.53,2.85,59.34,59.34,0,0,1-12.28,1.21c-1.58,0-3.47-.08-5.66-.24q-2.17-.09-5.75-.38l-5.32-.39c-1.88-.13-3.33-.2-4.36-.2H695c-1.13,0-2.23,0-3.29.1l-6.82.19q-2,0-2-1c0-.55.51-.82,1.54-.82a16.77,16.77,0,0,0,3.58-.39q2.18-.39,2.9-5.47.29-2.76.39-8.7c.06-1.58.1-3.53.1-5.85Zm12.37,25.83q0,16.24.2,20l.29,4.26a13.14,13.14,0,0,0,.29,2,3.51,3.51,0,0,0,.48,1.26,7.62,7.62,0,0,0,4.07,2.7,27.17,27.17,0,0,0,8.94,1.26q14.55,0,22.78-7.11A22.37,22.37,0,0,0,747.37,727a48,48,0,0,0,1.79-14.07A37.31,37.31,0,0,0,746,697.37a28.63,28.63,0,0,0-6.34-9.19,35,35,0,0,0-7.11-5.27,34.07,34.07,0,0,0-7.44-3,37.61,37.61,0,0,0-7.21-1.39q-3-.3-6.34-.3c-1.12,0-2.35.07-3.67.2a10.88,10.88,0,0,0-2.81.48,2,2,0,0,0-1.16,2c-.06,1.55-.1,4.29-.1,8.23Z" transform="translate(-440.94 -622.86)"/><path class="cls-1" d="M781.32,687.4l-.19-6q-.3-4.79-4.26-5.66a18.63,18.63,0,0,0-3.87-.29c-1.13,0-1.69-.3-1.69-.92s.72-.87,2.17-.87l17.13.29a13,13,0,0,1,1.79-.1l6.14-.19h9.33l5,.19A77,77,0,0,1,823.49,675a44.4,44.4,0,0,1,10.2,3.34,33,33,0,0,1,9,6.53A31.48,31.48,0,0,1,849.36,695a37.74,37.74,0,0,1,2.95,15.08,41.07,41.07,0,0,1-3.24,16.3,37.73,37.73,0,0,1-7.54,11.32,33.39,33.39,0,0,1-4.55,3.77,48.71,48.71,0,0,1-6.82,3.87,47.24,47.24,0,0,1-9.53,2.85,59.27,59.27,0,0,1-12.28,1.21c-1.58,0-3.46-.08-5.65-.24-1.46-.06-3.37-.19-5.76-.38l-5.32-.39c-1.87-.13-3.32-.2-4.35-.2H784.9c-1.13,0-2.23,0-3.29.1l-6.82.19q-2,0-2-1c0-.55.51-.82,1.54-.82a16.7,16.7,0,0,0,3.58-.39c1.46-.26,2.42-2.08,2.91-5.47q.28-2.76.38-8.7c.07-1.58.1-3.53.1-5.85Zm12.38,25.83q0,16.24.19,20l.29,4.26a14.56,14.56,0,0,0,.29,2,3.32,3.32,0,0,0,.49,1.26,7.55,7.55,0,0,0,4.06,2.7,27.25,27.25,0,0,0,8.94,1.26q14.56,0,22.78-7.11A22.37,22.37,0,0,0,837.27,727a47.63,47.63,0,0,0,1.79-14.07,37.31,37.31,0,0,0-3.19-15.57,28.47,28.47,0,0,0-6.34-9.19,35.25,35.25,0,0,0-7.1-5.27,34.36,34.36,0,0,0-7.45-3,37.61,37.61,0,0,0-7.21-1.39c-2-.2-4.1-.3-6.33-.3-1.13,0-2.36.07-3.68.2a10.78,10.78,0,0,0-2.8.48,2,2,0,0,0-1.16,2q-.1,2.33-.1,8.23Z" transform="translate(-440.94 -622.86)"/><path class="cls-1" d="M869.91,688.42l-.19-6q-.29-4.89-3.38-5.56a13.85,13.85,0,0,0-3.54-.39q-1.59,0-1.59-1c0-.51.79-.77,2.37-.77l15.28.29a9.24,9.24,0,0,1,1.55-.1l8.12-.19c1.39,0,2.08.26,2.08.77q0,1-1.59,1a18.35,18.35,0,0,0-2.95.29q-3.39.57-3.68,5.66l-.19,6v39.22c0,2.36,0,4.35.1,6q0,5.94.28,8.85.54,4.35,4,4.83a37.28,37.28,0,0,0,5.08.39c1.07,0,1.59.28,1.59.82s-.62,1-1.88,1l-12-.19a3.87,3.87,0,0,1-.92-.1l-15,.29c-1.33,0-2-.32-2-1s.54-.82,1.6-.82a16.77,16.77,0,0,0,3.58-.39q2.37-.48,2.85-4.93.3-2.8.39-8.75c.06-1.65.09-3.64.09-6Z" transform="translate(-440.94 -622.86)"/><path class="cls-1" d="M919.25,736q.29,9.87,3.48,11a16.18,16.18,0,0,0,5.12.68c1.13,0,1.7.27,1.7.82s-.76,1-2.27,1h-4.36l-5.56-.19a1.65,1.65,0,0,1-.58-.1l-5.56.1c-2.55.13-4.85.19-6.92.19-1.45,0-2.17-.32-2.17-1s.53-.82,1.59-.82a16.74,16.74,0,0,0,4.45-.49q3-.87,3.05-12.28l.92-58.62c0-2.25.41-3.38,1.25-3.38a2.41,2.41,0,0,1,1.6.87c.25.23.6.56,1,1L927.47,687l33.08,34,1.59,1.79c.06,0,.13.07.2.19s.09,0,.09.1.1,0,.1.1a1,1,0,0,1,.39.43,3.87,3.87,0,0,1,.82.78l5.85,6h.48l-1-44.49q-.1-7.5-3.34-8.9a8.93,8.93,0,0,0-2.66-.48,8.61,8.61,0,0,0-1.4-.1h-1.21c-1,0-1.55-.3-1.55-.92s.85-.87,2.56-.87q3,0,7.11.1a3.7,3.7,0,0,0,.83.1l5.32.09a1.11,1.11,0,0,1,.48-.09h.53a6.34,6.34,0,0,0,1.16-.1q3.39-.11,6.24-.1c1.51,0,2.27.29,2.27.87s-.58.92-1.74.92a13.35,13.35,0,0,0-3,.29q-3.57,1-3.67,8.42l-1.07,62.48c0,2.06-.43,3.09-1.3,3.09s-1.89-.72-3.34-2.17-3.4-3.28-5.75-5.66L942,719.4q-3.72-3.67-8-8.12L918.47,694.4h-.29Z" transform="translate(-440.94 -622.86)"/><path class="cls-1" d="M1065.2,741.47c0,1.84-.42,3-1.26,3.58a35.85,35.85,0,0,1-11.51,3.43,72.07,72.07,0,0,1-12.38,1q-19.68,0-32-9.24a32.53,32.53,0,0,1-10-11.94,39.87,39.87,0,0,1-3.77-17.65,38.91,38.91,0,0,1,5.27-20.12,33.89,33.89,0,0,1,11.95-12.29,42.8,42.8,0,0,1,13.78-5.32,58.06,58.06,0,0,1,6.53-.91q2.81-.19,6.34-.2c3,0,6.49.2,10.59.58q4.79.63,7,1c1.32.26,2.61.48,3.87.67q2.48.3,4,.39a2.81,2.81,0,0,1,1.17.44,1.16,1.16,0,0,1,.19.77l-.19,2.37a10.5,10.5,0,0,0-.1,1.5c-.13,1.39-.23,3-.29,4.74-.07,2.26-.1,4.8-.1,7.64,0,1.39-.37,2.08-1.11,2.08-.52,0-.84-.44-1-1.31l-.29-1.88a15.84,15.84,0,0,0-.53-2.08,13.06,13.06,0,0,0-2.56-4.26,23.71,23.71,0,0,0-7.93-5,37.2,37.2,0,0,0-14.13-2.65,41.76,41.76,0,0,0-4.4.19,35.34,35.34,0,0,0-4.83.68,25.36,25.36,0,0,0-10.4,5.27,22.89,22.89,0,0,0-6.62,9.28,40.07,40.07,0,0,0-2.47,14.94q0,16.26,9.38,26.65,9.63,10.59,25.05,10.59h2.08a20.5,20.5,0,0,0,2.18-.1,14.69,14.69,0,0,0,4.16-1c1.25-.61,1.89-1.84,1.89-3.68V723.73c0-2,0-3.71-.11-5-.06-3.16-1.48-5-4.25-5.66a18.28,18.28,0,0,0-3.87-.28c-1,0-1.45-.26-1.45-.78,0-.68.69-1,2.08-1l17,.29c.58-.07,1.6-.13,3-.2l5.85-.09c1.32,0,2,.33,2,1,0,.52-.43.78-1.26.78a18.5,18.5,0,0,0-2.71.28c-2.45.46-3.71,2.34-3.78,5.66-.06,1.33-.09,3-.09,5.13Z" transform="translate(-440.94 -622.86)"/><path class="cls-1" d="M1167.27,701.32q0,32.45,3.45,35.41a12.41,12.41,0,0,0,6.18,2.73,76.9,76.9,0,0,0,13.66.89,62.61,62.61,0,0,0,11.4-.73,14.1,14.1,0,0,0,7.87-3.93,16.78,16.78,0,0,0,4.25-9.88c.22-1.61.83-2.41,1.85-2.41.85,0,1.28.91,1.28,2.73q0,2-.64,8.43l-.8,5.79a28.8,28.8,0,0,1-1,4.73c-.54,1.88-1.29,3.08-2.26,3.61-1.22.54-3.93.81-8.11.81q-7.38,0-15.57-.16l-12.21-.32c-7.33-.33-11.07-.48-17.12-.48h-3.94q-2.8,0-5.37.15l-11.41.33c-2.19,0-3.29-.54-3.29-1.61,0-.91.88-1.36,2.65-1.36a27.92,27.92,0,0,0,5.94-.65q3.62-.63,4.74-9.07.48-4.58.72-14.45.16-3.95.16-9.72V647.6l-.4-10q-.48-7.95-7.06-9.4a23.49,23.49,0,0,0-5.39-.48c-1.87,0-2.81-.51-2.81-1.53s1.21-1.44,3.62-1.44l23.87.48a19.76,19.76,0,0,1,2.8-.16l15.26-.32c2.31,0,3.46.48,3.46,1.44s-1,1.53-3,1.53a40.34,40.34,0,0,0-6.43.48q-5.53,1-6,9.4l-.32,10Z" transform="translate(-440.94 -622.86)"/><path class="cls-1" d="M1246.26,723.67c-.38,0-.69.26-.92.78L1240,738.62a16.87,16.87,0,0,0-1.5,6c0,2,1.33,3,4,3h1.5c1,0,1.45.28,1.45.82s-.55,1-1.65,1l-12.08-.29a1.31,1.31,0,0,1-.59.1h-2.22q-4.26.2-7.3.19c-1.26,0-1.89-.32-1.89-1s.4-.82,1.21-.82a25.2,25.2,0,0,0,3-.19,7.56,7.56,0,0,0,5.17-2.85,22.13,22.13,0,0,0,3.24-6l24.86-62.19q1.69-4,2.8-4c.71,0,1.54,1,2.47,3.14q.77,1.8,4,9.73l14.46,36.17q4,10,6.14,15,2.46,6,4.93,8.51a8.06,8.06,0,0,0,2.08,1.69,5.49,5.49,0,0,0,1.69.58,21.59,21.59,0,0,0,4.16.39c.87,0,1.31.28,1.31.82s-1.53,1-4.6,1l-19.29-.19-1.6-.2c-.52-.06-.77-.25-.77-.58,0-.54.45-.85,1.35-.92a1.45,1.45,0,0,0,.92-.77,2,2,0,0,0,0-1.5l-7.93-21a1,1,0,0,0-1-.68Zm20.22-5c.45,0,.61-.19.48-.58l-8.9-24.46c-.16-.59-.34-.88-.53-.88s-.45.29-.58.88L1247.86,718c-.13.45,0,.67.38.67Z" transform="translate(-440.94 -622.86)"/><path class="cls-1" d="M1325.13,736.07q.28,9.87,3.48,11a16.2,16.2,0,0,0,5.13.68c1.13,0,1.69.27,1.69.82s-.76,1-2.27,1h-4.36l-5.56-.19a1.73,1.73,0,0,1-.58-.1l-5.56.1q-3.82.2-6.91.19c-1.46,0-2.18-.32-2.18-1s.53-.82,1.6-.82a16.71,16.71,0,0,0,4.44-.49q3-.87,3-12.28l.92-58.62c0-2.25.42-3.38,1.25-3.38a2.41,2.41,0,0,1,1.6.87,12,12,0,0,1,1,1L1333.35,687l33.08,34,1.59,1.79c.07,0,.14.07.2.2a.08.08,0,0,1,.09.09c.07,0,.1,0,.1.1a1,1,0,0,1,.39.43,3.87,3.87,0,0,1,.82.78l5.85,6h.49l-1-44.49q-.11-7.5-3.34-8.9a8.86,8.86,0,0,0-2.66-.48,8.53,8.53,0,0,0-1.4-.1h-1.21c-1,0-1.55-.31-1.55-.92s.86-.87,2.57-.87q2.94,0,7.11.1a3.61,3.61,0,0,0,.82.1l5.32.09a1.14,1.14,0,0,1,.48-.09h.53a6.54,6.54,0,0,0,1.17-.1q3.38-.11,6.23-.1,2.28,0,2.28.87c0,.61-.59.92-1.74.92a13.23,13.23,0,0,0-3,.29q-3.58,1-3.68,8.42l-1.06,62.48c0,2.06-.44,3.09-1.31,3.09s-1.88-.72-3.33-2.17-3.41-3.27-5.76-5.66l-23.5-23.46q-3.73-3.67-8-8.12l-15.53-16.88h-.29Z" transform="translate(-440.94 -622.86)"/><path class="cls-1" d="M1408.06,687.5l-.19-6c-.2-3.2-1.62-5.08-4.26-5.66a17.83,17.83,0,0,0-3.87-.29c-1.13,0-1.69-.31-1.69-.92s.72-.87,2.18-.87l17.12.29a11.58,11.58,0,0,1,1.79-.1l6.14-.19h9.34l5,.19a75.46,75.46,0,0,1,10.59,1.21,43.92,43.92,0,0,1,10.2,3.34,32.74,32.74,0,0,1,9,6.53,31.38,31.38,0,0,1,6.62,10.1,37.79,37.79,0,0,1,3,15.09,41.24,41.24,0,0,1-3.24,16.3,37.75,37.75,0,0,1-7.55,11.32,33.39,33.39,0,0,1-4.55,3.77,39.55,39.55,0,0,1-16.34,6.72,59.41,59.41,0,0,1-12.28,1.21c-1.59,0-3.47-.08-5.66-.24-1.46-.07-3.37-.2-5.76-.39l-5.32-.39c-1.87-.12-3.32-.19-4.35-.19h-2.37c-1.13,0-2.22,0-3.29.1l-6.82.19c-1.32,0-2-.32-2-1s.52-.82,1.55-.82a17.33,17.33,0,0,0,3.57-.38c1.46-.26,2.42-2.09,2.91-5.47q.29-2.76.38-8.7c.07-1.58.1-3.54.1-5.86Zm12.38,25.83q0,16.24.19,20l.29,4.25a14.34,14.34,0,0,0,.3,2,3.06,3.06,0,0,0,.48,1.25,7.56,7.56,0,0,0,4.06,2.71,27.27,27.27,0,0,0,9,1.26q14.55,0,22.77-7.11a22.34,22.34,0,0,0,6.53-10.59A47.71,47.71,0,0,0,1465.8,713a37.35,37.35,0,0,0-3.19-15.57,28.4,28.4,0,0,0-6.33-9.18,35.46,35.46,0,0,0-7.11-5.28,34.13,34.13,0,0,0-7.45-3,38.38,38.38,0,0,0-7.21-1.4q-3-.28-6.33-.29a35.07,35.07,0,0,0-3.68.2,10.35,10.35,0,0,0-2.8.48,2,2,0,0,0-1.16,2c-.06,1.55-.1,4.29-.1,8.22Z" transform="translate(-440.94 -622.86)"/></svg>